<svg width="100" height="100" viewBox="0 0 100 100" fill="none"
    xmlns="http://www.w3.org/2000/svg">
    <g clip-path="url(#clip0_2120_1183)">
        <rect width="100" height="100" rx="9.70291" fill="#FF1839"/>
        <path d="M78.0898 -0.390625H21.5196C9.41893 -0.390625 -0.390625 9.41893 -0.390625 21.5196V78.0898C-0.390625 90.1904 9.41893 100 21.5196 100H78.0898C90.1904 100 100 90.1904 100 78.0898V21.5196C100 9.41893 90.1904 -0.390625 78.0898 -0.390625Z" fill="#FF1839"/>
        <path d="M50.8653 81.3857C42.3724 81.3857 34.3217 77.6891 28.7776 71.2405C28.0366 70.3794 28.1351 69.0793 28.9963 68.3383C29.8607 67.5957 31.1591 67.6958 31.9001 68.557C36.6598 74.0926 43.5723 77.2685 50.8653 77.2685C64.6503 77.2685 75.8652 66.0536 75.8652 52.2686C75.8652 38.4837 64.6503 27.2688 50.8653 27.2688C43.8276 27.2688 37.077 30.2611 32.344 35.478C31.5797 36.3191 30.278 36.3842 29.4368 35.6199C28.5957 34.8555 28.5323 33.5555 29.295 32.7127C34.8073 26.6379 42.6694 23.1533 50.8653 23.1533C66.92 23.1533 79.9823 36.2157 79.9823 52.2703C79.9823 68.325 66.92 81.3873 50.8653 81.3873V81.3857Z" fill="white"/>
        <path d="M50.8649 27.2688C49.7284 27.2688 48.8071 26.3475 48.8071 25.211V18.5572C48.8071 17.4207 49.7284 16.4995 50.8649 16.4995C52.0014 16.4995 52.9226 17.4207 52.9226 18.5572V25.211C52.9226 26.3475 52.0014 27.2688 50.8649 27.2688Z" fill="white"/>
        <path d="M58.692 19.7938H43.0362C41.8997 19.7938 40.9785 18.8726 40.9785 17.7361C40.9785 16.5996 41.8997 15.6784 43.0362 15.6784H58.692C59.8286 15.6784 60.7498 16.5996 60.7498 17.7361C60.7498 18.8726 59.8286 19.7938 58.692 19.7938Z" fill="white"/>
        <path d="M26.8516 45.4947H14.1964C13.0599 45.4947 12.1387 44.5734 12.1387 43.4369C12.1387 42.3004 13.0599 41.3792 14.1964 41.3792H26.8516C27.9881 41.3792 28.9093 42.3004 28.9093 43.4369C28.9093 44.5734 27.9881 45.4947 26.8516 45.4947Z" fill="white"/>
        <path d="M26.8516 63.1381H14.1964C13.0599 63.1381 12.1387 62.2169 12.1387 61.0804C12.1387 59.9439 13.0599 59.0226 14.1964 59.0226H26.8516C27.9881 59.0226 28.9093 59.9439 28.9093 61.0804C28.9093 62.2169 27.9881 63.1381 26.8516 63.1381Z" fill="white"/>
        <path d="M21.8516 54.3164H9.19641C8.0599 54.3164 7.13867 53.3951 7.13867 52.2586C7.13867 51.1221 8.0599 50.2009 9.19641 50.2009H21.8516C22.9881 50.2009 23.9093 51.1221 23.9093 52.2586C23.9093 53.3951 22.9881 54.3164 21.8516 54.3164V54.3164Z" fill="white"/>
        <path d="M69.777 34.6953C69.2029 34.6953 68.6321 34.4567 68.2249 33.9894C67.4789 33.1332 67.5674 31.8315 68.4252 31.0855L73.1898 26.9333C74.046 26.1857 75.346 26.2758 76.0937 27.1336C76.8414 27.9897 76.7512 29.2915 75.8934 30.0374L71.1288 34.1896C70.7382 34.5301 70.2576 34.697 69.777 34.697V34.6953Z" fill="white"/>
        <path d="M64.5718 59.3881H63.3268V62.4255C63.3268 63.5687 62.4005 64.4949 61.2574 64.4949C60.1142 64.4949 59.1879 63.5687 59.1879 62.4255V59.3881H53.1633C51.1172 59.3764 49.6169 57.4589 50.0975 55.4712L50.1176 55.3911C50.201 55.0957 50.3228 54.6852 50.4463 54.3164C50.7851 53.3017 51.6663 50.8618 53.0898 47C53.4036 46.1472 54.218 45.5748 55.1275 45.5748C56.6412 45.5748 57.6893 47.0868 57.1586 48.5036L54.6185 55.2843H59.1913V41.8048C59.1913 40.6616 60.1175 39.7353 61.2607 39.7353C62.4039 39.7353 63.3301 40.6616 63.3301 41.8048V55.2843H64.5751C65.7083 55.2843 66.6278 56.2039 66.6278 57.3371C66.6278 58.4702 65.7083 59.3898 64.5751 59.3898L64.5718 59.3881Z" fill="white"/>
        <path d="M48.4954 60.5897H41.2708L45.0408 56.2189C45.1743 56.042 45.6199 55.518 46.3759 54.6518C47.1319 53.784 47.7878 52.9946 48.3452 52.282C48.7441 51.7713 49.1963 51.1488 49.5551 50.4028L49.5635 50.4078C50.1025 49.3715 50.3879 48.2049 50.3879 47.0317C50.3879 42.9997 47.1069 39.7186 43.0749 39.7186C40.3763 39.7186 38.0215 41.1923 36.7531 43.3718C36.7498 43.3768 36.7465 43.3835 36.7414 43.3885C36.7214 43.4219 36.6981 43.4519 36.6797 43.4853C36.6797 43.487 36.6847 43.4937 36.6847 43.4953C36.4878 43.8291 36.3676 44.2129 36.3676 44.6268C36.3676 45.8618 37.3673 46.8615 38.6023 46.8615C39.4617 46.8615 40.1977 46.3708 40.5715 45.6599C40.5732 45.6599 40.5815 45.6632 40.5815 45.6615C41.2007 44.5367 42.5592 43.8742 43.9978 44.3331C44.9807 44.6469 45.7267 45.5364 45.8803 46.5561C45.977 47.1936 45.8803 47.7977 45.5982 48.3418L45.6032 48.3451C44.4734 50.4663 37.3639 58.4886 37.3639 58.4886C37.1119 58.7656 36.9 59.0009 36.7248 59.1995C36.7181 59.2079 36.7031 59.2246 36.7031 59.2246L36.5662 59.3965C34.9374 61.4525 36.3943 64.4815 39.0178 64.4932H48.4937C49.5718 64.4932 50.4463 63.6187 50.4463 62.5406C50.4463 61.4625 49.5718 60.588 48.4937 60.588L48.4954 60.5897Z" fill="white"/>
    </g>
    <defs>
        <clipPath id="clip0_2120_1183">
            <rect width="100" height="100" rx="9.70291" fill="white"/>
        </clipPath>
    </defs>
</svg>
